:FULLY-SPECIFIED
:FORCE-ALL-JOINTS-BE-3DOF
:DEGREES
714
root -11.6096 13.9336 -38.3047 514.262 -59.9114 210.422
lfemur -64.3039 26.2639 0.645791
ltibia 75.2939 0 0
lfoot -8.64225 -8.45366 0
ltoes -2.42507 0 0
rfemur 10.8792 -9.66988 11.0037
rtibia 39.5128 0 0
rfoot -25.0848 -27.7312 0
rtoes -26.188 0 0
lowerback 11.9184 1.34693 9.47555
upperback -1.76316 3.42999 5.9372
thorax -8.44559 1.23238 0.422592
lowerneck -4.8917 5.24148 0.950283
upperneck 4.38746 6.87877 1.14889
head 2.15327 3.47505 0.41395
lclavicle 2.02728e-14 -7.16679e-15 0
lhumerus 64.9983 19.0789 110.341
lradius 6.65528 0 0
lwrist -84.5007 0 0
lhand -36.0448 37.306 0
lfingers 7.12502 0 0
lthumb -9.15059 67.2768 0
rclavicle 2.02728e-14 -7.16679e-15 0
rhumerus -83.7274 18.8655 -98.5352
rradius 116.032 0 0
rwrist -68.8457 0 0
rhand -11.0413 -43.076 0
rfingers 7.12502 0 0
rthumb 14.9846 -72.5387 0
715
root -11.6195 13.93 -38.3082 514.17 -59.97 210.584
lfemur -64.4473 26.3109 0.57174
ltibia 75.45 0 0
lfoot -8.74075 -8.47166 0
ltoes -2.44162 0 0
rfemur 10.9824 -9.74801 11.0308
rtibia 39.3135 0 0
rfoot -25.0605 -27.7854 0
rtoes -26.4537 0 0
lowerback 11.8833 1.34058 9.50679
upperback -1.77011 3.42256 5.94665
thorax -8.43219 1.22772 0.417572
lowerneck -4.8429 5.22683 0.979466
upperneck 4.36898 6.85959 1.11854
head 2.14112 3.4649 0.397687
lclavicle 2.10864e-14 -8.18574e-15 0
lhumerus 64.9571 18.9798 110.238
lradius 6.76578 0 0
lwrist -84.4755 0 0
lhand -35.9779 37.2527 0
lfingers 7.12502 0 0
lthumb -9.08599 67.2222 0
rclavicle 2.10864e-14 -8.18574e-15 0
rhumerus -83.6627 18.8735 -98.5873
rradius 116.004 0 0
rwrist -68.6424 0 0
rhand -10.6576 -42.624 0
rfingers 7.12502 0 0
rthumb 15.3538 -72.0524 0
716
root -11.6293 13.9264 -38.3117 514.063 -60.0368 210.764
lfemur -64.5932 26.3509 0.489764
ltibia 75.6076 0 0
lfoot -8.83839 -8.48625 0
ltoes -2.46458 0 0
rfemur 11.0758 -9.83063 11.0636
rtibia 39.1214 0 0
rfoot -25.0359 -27.8398 0
rtoes -26.7195 0 0
lowerback 11.8497 1.33457 9.53555
upperback -1.77698 3.4153 5.95516
thorax -8.41959 1.22325 0.412813
lowerneck -4.79206 5.20925 1.00661
upperneck 4.34866 6.83658 1.08921
head 2.12822 3.45281 0.38199
lclavicle 2.18933e-14 -9.23058e-15 0
lhumerus 64.9005 18.8606 110.119
lradius 6.90842 0 0
lwrist -84.4117 0 0
lhand -35.8952 37.1926 0
lfingers 7.12502 0 0
lthumb -9.00624 67.1603 0
rclavicle 2.18933e-14 -9.23058e-15 0
rhumerus -83.5497 18.8829 -98.6241
rradius 115.972 0 0
rwrist -68.4233 0 0
rhand -10.2578 -42.1521 0
rfingers 7.12502 0 0
rthumb 15.7383 -71.5442 0
717
root -11.6392 13.9228 -38.3152 513.94 -60.111 210.957
lfemur -64.7409 26.3838 0.400708
ltibia 75.766 0 0
lfoot -8.93462 -8.49736 0
ltoes -2.4938 0 0
rfemur 11.1591 -9.91672 11.1012
rtibia 38.9377 0 0
rfoot -25.0112 -27.8938 0
rtoes -26.9845 0 0
lowerback 11.8175 1.32891 9.56161
upperback -1.7837 3.40822 5.96268
thorax -8.40779 1.21899 0.408404
lowerneck -4.73943 5.18918 1.03187
upperneck 4.3266 6.8103 1.06077
head 2.11464 3.43906 0.366804
lclavicle 2.26899e-14 -1.02966e-14 0
lhumerus 64.83 18.7233 109.982
lradius 7.08012 0 0
lwrist -84.3116 0 0
lhand -35.7981 37.1264 0
lfingers 7.12502 0 0
lthumb -8.91261 67.0916 0
rclavicle 2.26899e-14 -1.02966e-14 0
rhumerus -83.3918 18.8936 -98.6457
rradius 115.934 0 0
rwrist -68.1894 0 0
rhand -9.84379 -41.6631 0
rfingers 7.12502 0 0
rthumb 16.1365 -71.0172 0
